<svg class="red" version="1.2" xmlns="http://www.w3.org/2000/svg" viewBox="0 0 567 567" width="567" height="567">
                <title>UR-mosaic</title>
                <style>.transparent{display:none}.black{fill:black}.white{fill:white}.blackwhite .light{fill:#bfbfbf;}.blackwhite .dark{fill:#808080}.green .light{fill:rgb(101,179,46)}.green .dark{fill:rgb(0,120,82)}.cyan .light{fill:rgb(0,171,228)}.cyan .dark{fill:rgb(0,64,112)}.blue .light{fill:rgb(64,84,161)}.blue .dark{fill:rgb(58,28,103)}.purple .light{fill:rgb(168,119,178)}.purple .dark{fill:rgb(117,27,103)}.pink .light{fill:rgb(237,110,167)}.pink .dark{fill:rgb(168,0,77)}.red .light{fill:rgb(230,51,18)}.red .dark{fill:rgb(181,31,31)}.yellow .light{fill:rgb(247,166,0)}.yellow .dark{fill:rgb(204,98,26)}</style>
                <g id="a1" class="black">
                    <path d="M224.1,209.3l44.5,44.5l14.8-14.8L239,194.4L224.1,209.3z"></path>
                    <path d="M194.4,239l44.5,44.5l14.8-14.8l-44.5-44.5L194.4,239z"></path>
                    <path d="M209.3,342.9l44.5-44.5L239,283.5L194.4,328L209.3,342.9z"></path>
                    <path d="M239,372.6l44.5-44.5l-14.8-14.8l-44.5,44.5L239,372.6z"></path>
                    <path d="M342.9,357.7l-44.5-44.5L283.5,328l44.5,44.5L342.9,357.7z"></path>
                    <path d="M372.6,328L328,283.5l-14.8,14.8l44.5,44.5L372.6,328z"></path>
                    <path d="M357.7,224.1l-44.5,44.5l14.8,14.8l44.5-44.5L357.7,224.1z"></path>
                    <path d="M328,194.4L283.5,239l14.8,14.8l44.5-44.5L328,194.4z"></path>
                </g>
                <g id="b1" class="light">
                    <path d="M273,441v-63h-21v63H273z"></path>
                    <path d="M315,441v-63h-21v63H315z"></path>
                    <path d="M294,126v63h21v-63H294z"></path>
                    <path d="M252,126v63h21v-63H252z"></path>
                </g>
                <g id="b2" class="black">
                    <path d="M179.6,164.7l44.5,44.5l14.8-14.8l-44.5-44.5L179.6,164.7z"></path>
                    <path d="M149.9,194.4l44.5,44.5l14.8-14.8l-44.5-44.5L149.9,194.4z"></path>
                    <path d="M164.7,387.4l44.5-44.5L194.4,328l-44.5,44.5L164.7,387.4z"></path>
                    <path d="M194.4,417.1l44.5-44.5l-14.8-14.8l-44.5,44.5L194.4,417.1z"></path>
                    <path d="M387.4,402.3l-44.5-44.5L328,372.6l44.5,44.5L387.4,402.3z"></path>
                    <path d="M417.1,372.6L372.6,328l-14.8,14.8l44.5,44.5L417.1,372.6z"></path>
                    <path d="M402.3,179.6l-44.5,44.5l14.8,14.8l44.5-44.5L402.3,179.6z"></path>
                    <path d="M372.6,149.9L328,194.4l14.8,14.8l44.5-44.5L372.6,149.9z"></path>
                </g>
                <g id="b3" class="dark">
                    <path d="M126,273h63v-21h-63V273z"></path>
                    <path d="M126,315h63v-21h-63V315z"></path>
                    <path d="M441,294h-63v21h63V294z"></path>
                    <path d="M441,252h-63v21h63V252z"></path>
                </g>
                <g id="c1" class="light">
                    <path d="M273,504v-63h-21v63H273z"></path>
                    <path d="M315,504v-63h-21v63H315z"></path>
                    <path d="M294,63v63h21V63H294z"></path>
                    <path d="M252,63v63h21V63H252z"></path>
                </g>
                <g id="c2" class="transparent">
                    <path d="M208.8,75.8l24.1,58.2l19.4-8l-24.1-58.2L208.8,75.8z"></path>
                    <path d="M170,91.8l24.1,58.2l19.4-8l-24.1-58.2L170,91.8z"></path>
                    <path d="M189.4,483.2l24.1-58.2l-19.4-8L170,475.2L189.4,483.2z"></path>
                    <path d="M228.2,499.3l24.1-58.2l-19.4-8l-24.1,58.2L228.2,499.3z"></path>
                    <path d="M358.2,491.2L334.1,433l-19.4,8l24.1,58.2L358.2,491.2z"></path>
                    <path d="M397,475.2L372.9,417l-19.4,8l24.1,58.2L397,475.2z"></path>
                    <path d="M377.6,83.8L353.5,142l19.4,8L397,91.8L377.6,83.8z"></path>
                    <path d="M338.8,67.7l-24.1,58.2l19.4,8l24.1-58.2L338.8,67.7z"></path>
                </g>
                <g id="c3" class="black">
                    <path d="M135,120.2l44.5,44.5l14.8-14.8l-44.5-44.5L135,120.2z"></path>
                    <path d="M105.3,149.9l44.5,44.5l14.8-14.8L120.2,135L105.3,149.9z"></path>
                    <path d="M120.2,432l44.5-44.5l-14.8-14.8l-44.5,44.5L120.2,432z"></path>
                    <path d="M149.9,461.7l44.5-44.5l-14.8-14.8L135,446.8L149.9,461.7z"></path>
                    <path d="M432,446.8l-44.5-44.5l-14.8,14.8l44.5,44.5L432,446.8z"></path>
                    <path d="M461.7,417.1l-44.5-44.5l-14.8,14.8l44.5,44.5L461.7,417.1z"></path>
                    <path d="M446.8,135l-44.5,44.5l14.8,14.8l44.5-44.5L446.8,135z"></path>
                    <path d="M417.1,105.3l-44.5,44.5l14.8,14.8l44.5-44.5L417.1,105.3z"></path>
                </g>
                <g id="c4" class="transparent">
                    <path d="M83.8,189.4l58.2,24.1l8-19.4L91.8,170L83.8,189.4z"></path>
                    <path d="M67.7,228.2l58.2,24.1l8-19.4l-58.2-24.1L67.7,228.2z"></path>
                    <path d="M75.8,358.2l58.2-24.1l-8-19.4l-58.2,24.1L75.8,358.2z"></path>
                    <path d="M91.8,397l58.2-24.1l-8-19.4l-58.2,24.1L91.8,397z"></path>
                    <path d="M483.2,377.6L425,353.5l-8,19.4l58.2,24.1L483.2,377.6z"></path>
                    <path d="M499.3,338.8l-58.2-24.1l-8,19.4l58.2,24.1L499.3,338.8z"></path>
                    <path d="M491.2,208.8L433,232.9l8,19.4l58.2-24.1L491.2,208.8z"></path>
                    <path d="M475.2,170L417,194.1l8,19.4l58.2-24.1L475.2,170z"></path>
                </g>
                <g id="c5" class="dark">
                    <path d="M63,273h63v-21H63V273z"></path>
                    <path d="M63,315h63v-21H63V315z"></path>
                    <path d="M504,294h-63v21h63V294z"></path>
                    <path d="M504,252h-63v21h63V252z"></path>
                </g>
                <g id="d1" class="light">
                    <path d="M273,567v-63h-21v63H273z"></path>
                    <path d="M315,567v-63h-21v63H315z"></path>
                    <path d="M294,0v63h21V0L294,0z"></path>
                    <path d="M252,0v63h21V0L252,0z"></path>
                </g>
                <g id="d2" class="transparent">
                    <path d="M184.7,17.6l24.1,58.2l19.4-8L204.1,9.5L184.7,17.6z"></path>
                    <path d="M145.9,33.6L170,91.8l19.4-8l-24.1-58.2L145.9,33.6z"></path>
                    <path d="M165.3,541.4l24.1-58.2l-19.4-8l-24.1,58.2L165.3,541.4z"></path>
                    <path d="M204.1,557.5l24.1-58.2l-19.4-8l-24.1,58.2L204.1,557.5z"></path>
                    <path d="M382.3,549.4l-24.1-58.2l-19.4,8l24.1,58.2L382.3,549.4z"></path>
                    <path d="M421.1,533.4L397,475.2l-19.4,8l24.1,58.2L421.1,533.4z"></path>
                    <path d="M401.7,25.6l-24.1,58.2l19.4,8l24.1-58.2L401.7,25.6z"></path>
                    <path d="M362.9,9.5l-24.1,58.2l19.4,8l24.1-58.2L362.9,9.5z"></path>
                </g>
                <g id="d3" class="black">
                    <path d="M90.5,75.6l44.5,44.5l14.8-14.8l-44.5-44.5L90.5,75.6z"></path>
                    <path d="M60.8,105.3l44.5,44.5l14.8-14.8L75.6,90.5L60.8,105.3z"></path>
                    <path d="M75.6,476.5l44.5-44.5l-14.8-14.8l-44.5,44.5L75.6,476.5z"></path>
                    <path d="M105.3,506.2l44.5-44.5L135,446.8l-44.5,44.5L105.3,506.2z"></path>
                    <path d="M476.5,491.4L432,446.8l-14.8,14.8l44.5,44.5L476.5,491.4z"></path>
                    <path d="M506.2,461.7l-44.5-44.5L446.8,432l44.5,44.5L506.2,461.7z"></path>
                    <path d="M491.4,90.5L446.8,135l14.8,14.8l44.5-44.5L491.4,90.5z"></path>
                    <path d="M461.7,60.8l-44.5,44.5l14.8,14.8l44.5-44.5L461.7,60.8z"></path>
                </g>
                <g id="d4" class="transparent">
                    <path d="M25.6,165.3l58.2,24.1l8-19.4l-58.2-24.1L25.6,165.3z"></path>
                    <path d="M9.5,204.1l58.2,24.1l8-19.4l-58.2-24.1L9.5,204.1z"></path>
                    <path d="M17.6,382.3l58.2-24.1l-8-19.4L9.5,362.9L17.6,382.3z"></path>
                    <path d="M33.6,421.1L91.8,397l-8-19.4l-58.2,24.1L33.6,421.1z"></path>
                    <path d="M541.4,401.7l-58.2-24.1l-8,19.4l58.2,24.1L541.4,401.7z"></path>
                    <path d="M557.5,362.9l-58.2-24.1l-8,19.4l58.2,24.1L557.5,362.9z"></path>
                    <path d="M549.4,184.7l-58.2,24.1l8,19.4l58.2-24.1L549.4,184.7z"></path>
                    <path d="M533.4,145.9L475.2,170l8,19.4l58.2-24.1L533.4,145.9z"></path>
                </g>
                <g id="d5" class="dark">
                    <path d="M0,273h63v-21H0L0,273z"></path>
                    <path d="M0,315h63v-21H0L0,315z"></path>
                    <path d="M567,294h-63v21h63V294z"></path>
                    <path d="M567,252h-63v21h63V252z"></path>
                </g>
                <g id="e1" class="transparent">
                    <path d="M45.9,31.1l44.5,44.5l14.8-14.8L60.8,16.2L45.9,31.1z"></path>
                    <path d="M16.2,60.8l44.5,44.5l14.8-14.8L31.1,45.9L16.2,60.8z"></path>
                    <path d="M31.1,521.1l44.5-44.5l-14.8-14.8l-44.5,44.5L31.1,521.1z"></path>
                    <path d="M60.8,550.8l44.5-44.5l-14.8-14.8l-44.5,44.5L60.8,550.8z"></path>
                    <path d="M521.1,535.9l-44.5-44.5l-14.8,14.8l44.5,44.5L521.1,535.9z"></path>
                    <path d="M550.8,506.2l-44.5-44.5l-14.8,14.8l44.5,44.5L550.8,506.2z"></path>
                    <path d="M535.9,45.9l-44.5,44.5l14.8,14.8l44.5-44.5L535.9,45.9z"></path>
                    <path d="M506.2,16.2l-44.5,44.5l14.8,14.8l44.5-44.5L506.2,16.2z"></path>
                </g>
            </svg>